<?xml version="1.0" encoding="UTF-8"?>
<svg id="Layer_2" data-name="Layer 2" xmlns="http://www.w3.org/2000/svg" viewBox="0 0 27.28 34.98">
  <defs>
    <style>
      .cls-1 {
        fill: #fff;
        stroke-width: 0px;
      }
    </style>
  </defs>
  <g id="Layer_1-2" data-name="Layer 1">
    <g>
      <path class="cls-1" d="M1.41,10.43l2.24,22.98c.08.89.81,1.56,1.7,1.56h16.57c.91,0,1.64-.67,1.72-1.56l2.22-22.98H1.41ZM8.29,29.91h-.12c-.77,0-1.43-.61-1.48-1.39l-.93-12.17c-.04-.4.08-.77.34-1.09.26-.3.63-.49,1.03-.51h.1c.77,0,1.44.59,1.5,1.37l.95,12.17c.06.83-.55,1.54-1.39,1.62ZM15.12,28.41c0,.83-.65,1.5-1.48,1.5s-1.5-.67-1.5-1.5v-12.17c0-.81.67-1.48,1.5-1.48s1.48.67,1.48,1.48v12.17ZM20.57,28.52c-.06.77-.71,1.39-1.48,1.39h-.1c-.85-.08-1.46-.79-1.41-1.62l.95-12.17c.06-.83.77-1.41,1.6-1.37.83.06,1.44.77,1.39,1.6l-.95,12.17Z"/>
      <path class="cls-1" d="M21.08,4.47v-.65c0-2.12-1.72-3.82-3.82-3.82h-7.26c-2.1,0-3.82,1.7-3.82,3.82v.65H0v3.23h27.28v-3.23h-6.2ZM19.08,4.47h-10.91v-.65c0-1.01.81-1.82,1.82-1.82h7.26c1.01,0,1.82.81,1.82,1.82v.65Z"/>
    </g>
  </g>
</svg>