<?xml version="1.0" encoding="UTF-8"?>
<svg id="Layer_2" data-name="Layer 2" xmlns="http://www.w3.org/2000/svg" viewBox="0 0 37.24 37.24">
  <defs>
    <style>
      .cls-1 {
        fill: #cbcbd3;
        stroke-width: 0px;
      }
    </style>
  </defs>
  <g id="Layer_1-2" data-name="Layer 1">
    <g>
      <path class="cls-1" d="M27.27,24c-.98,0-1.78.8-1.78,1.78v7.91H3.55V11.75h8.14c.98,0,1.78-.8,1.78-1.78s-.8-1.78-1.78-1.78H1.78c-.98,0-1.78.8-1.78,1.78v25.5c0,.98.8,1.78,1.78,1.78h25.5c.98,0,1.78-.8,1.78-1.78v-9.69c0-.98-.8-1.78-1.78-1.78Z"/>
      <path class="cls-1" d="M35.95,4.88l-3.59-3.59c-1.75-1.72-4.58-1.72-6.31,0L9.47,17.88c-.31.31-.49.7-.52,1.14l-.56,7.95c-.04.49.14.99.53,1.41.34.31.78.48,1.35.48h0l7.96-.56c.43-.04.81-.22,1.12-.52l16.59-16.59c1.73-1.73,1.73-4.56,0-6.31ZM33.7,8.02c0,.25-.1.48-.28.66l-16.12,16.1-5.23.37.37-5.23L28.54,3.82c.36-.36.95-.36,1.31,0l3.59,3.59c.17.17.26.39.27.63Z"/>
    </g>
  </g>
</svg>