<?xml version="1.0" encoding="UTF-8"?>
<svg id="Layer_2" data-name="Layer 2" xmlns="http://www.w3.org/2000/svg" viewBox="0 0 40.44 27.05">
  <defs>
    <style>
      .cls-1 {
        fill: #597f40;
        stroke-width: 0px;
      }
    </style>
  </defs>
  <g id="Layer_1-2" data-name="Layer 1">
    <g>
      <polygon class="cls-1" points="8.07 16.86 7.08 17.86 11.9 23.4 11.9 27.05 0 27.05 0 6.1 11.9 9.15 11.9 20.19 8.07 16.86"/>
      <polygon class="cls-1" points="22.37 13.6 21.37 14.6 26.17 20.11 26.17 27.05 14.27 27.05 14.27 17 19.21 11.33 18.21 10.33 14.27 13.76 14.27 3.05 26.17 6.1 26.17 16.9 22.37 13.6"/>
      <polygon class="cls-1" points="40.44 3.05 40.44 27.05 28.54 27.05 28.54 13.76 33.51 8.06 32.51 7.06 28.54 10.51 28.54 0 40.44 3.05"/>
    </g>
  </g>
</svg>