<?xml version="1.0" encoding="UTF-8"?>
<svg id="Layer_2" data-name="Layer 2" xmlns="http://www.w3.org/2000/svg" viewBox="0 0 33.49 34.22">
  <defs>
    <style>
      .cls-1 {
        fill: #4285f4;
      }

      .cls-1, .cls-2, .cls-3, .cls-4 {
        fill-rule: evenodd;
        stroke-width: 0px;
      }

      .cls-2 {
        fill: #eb4335;
      }

      .cls-3 {
        fill: #fbbc05;
      }

      .cls-4 {
        fill: #34a853;
      }
    </style>
  </defs>
  <g id="Layer_1-2" data-name="Layer 1">
    <g id="Icons">
      <g id="Color-">
        <g id="Google">
          <path id="Fill-1" class="cls-3" d="M7.01,17.11c0-1.11.18-2.18.51-3.18L1.76,9.53c-1.12,2.28-1.76,4.85-1.76,7.58s.63,5.29,1.75,7.57l5.76-4.41c-.33-.99-.51-2.06-.51-3.16"/>
          <path id="Fill-2" class="cls-2" d="M17.14,7c2.41,0,4.6.86,6.31,2.26l4.98-4.98C25.39,1.63,21.5,0,17.14,0,10.36,0,4.54,3.87,1.76,9.53l5.77,4.4c1.33-4.03,5.12-6.93,9.61-6.93"/>
          <path id="Fill-3" class="cls-4" d="M17.14,27.22c-4.49,0-8.28-2.9-9.61-6.93l-5.77,4.4c2.79,5.66,8.61,9.53,15.38,9.53,4.18,0,8.17-1.48,11.16-4.26l-5.47-4.23c-1.54.97-3.49,1.5-5.69,1.5"/>
          <path id="Fill-4" class="cls-1" d="M33.49,17.11c0-1.01-.16-2.1-.39-3.11h-15.97v6.61h9.19c-.46,2.25-1.71,3.99-3.5,5.11l5.47,4.23c3.15-2.92,5.19-7.27,5.19-12.85"/>
        </g>
      </g>
    </g>
  </g>
</svg>