<?xml version="1.0" encoding="UTF-8"?>
<svg id="Layer_2" data-name="Layer 2" xmlns="http://www.w3.org/2000/svg" viewBox="0 0 27.78 34.22">
  <defs>
    <style>
      .cls-1 {
        fill: #eda20a;
        stroke-width: 0px;
      }
    </style>
  </defs>
  <g id="Layer_1-2" data-name="Layer 1">
    <g>
      <path class="cls-1" d="M13.89,0c-1.75,0-3.16,1.42-3.16,3.16v10.89h-4.4v-4.98c0-1.75-1.42-3.16-3.16-3.16s-3.16,1.42-3.16,3.16v16.09c0,1.75,1.42,3.16,3.16,3.16s3.16-1.42,3.16-3.16v-4.78h4.4v10.69c0,1.75,1.42,3.16,3.16,3.16s3.16-1.42,3.16-3.16V3.16c0-1.75-1.42-3.16-3.16-3.16Z"/>
      <path class="cls-1" d="M24.62,5.91c-1.75,0-3.16,1.42-3.16,3.16v16.09c0,1.75,1.42,3.16,3.16,3.16s3.16-1.42,3.16-3.16V9.07c0-1.75-1.42-3.16-3.16-3.16Z"/>
    </g>
  </g>
</svg>