<?xml version="1.0" encoding="UTF-8"?>
<svg id="Layer_2" data-name="Layer 2" xmlns="http://www.w3.org/2000/svg" xmlns:xlink="http://www.w3.org/1999/xlink" viewBox="0 0 190.22 43.68">
  <defs>
    <style>
      .cls-1 {
        fill: url(#linear-gradient);
      }

      .cls-1, .cls-2, .cls-3 {
        stroke-width: 0px;
      }

      .cls-2 {
        fill: #fff;
      }

      .cls-3 {
        fill: #3f3f4f;
      }
    </style>
    <linearGradient id="linear-gradient" x1="-1.91" y1="49.35" x2="32.72" y2="-3.18" gradientUnits="userSpaceOnUse">
      <stop offset="0" stop-color="#5f00fc"/>
      <stop offset="1" stop-color="#23d0e1"/>
    </linearGradient>
  </defs>
  <g id="Layer_1-2" data-name="Layer 1">
    <g>
      <path class="cls-1" d="M0,43.68s7.21-6.7,29.95-6.7V14.98C29.95,6.7,23.25,0,14.98,0h0C6.7,0,0,6.7,0,14.98v28.71Z"/>
      <path class="cls-2" d="M23.55,31.7s-3.6-4.64-17.15-4.64v-12.04c0-4.74,3.84-8.57,8.57-8.57h0c4.74,0,8.57,3.84,8.57,8.57v16.68Z"/>
      <g>
        <path class="cls-3" d="M53.11,11.48h-9.73v24.2h4.55v-9.34h5.03c4.76,0,8.54-2.44,8.54-7.52,0-4.53-3.39-7.34-8.39-7.34ZM52.47,22.67h-4.54v-7.52h4.66c2.42,0,4.3,1.11,4.3,3.77s-1.69,3.75-4.42,3.75Z"/>
        <path class="cls-3" d="M71.68,17.27c-5.61,0-8.88,3.99-8.88,9.47s3.21,9.36,8.65,9.36,8.79-4.09,8.79-9.45c0-5.63-3.37-9.37-8.56-9.37ZM71.57,32.64c-2.68,0-4.33-2.33-4.33-5.95,0-3.91,1.59-5.96,4.26-5.96s4.32,2.12,4.32,5.98c0,3.65-1.52,5.93-4.25,5.93Z"/>
        <path class="cls-3" d="M87.54,21.02c0-1.23-.06-2.89-.12-3.33h-4.27c.02,1.32.03,2.85.03,4.88v13.11h4.35v-8.14c0-4.8,2.23-6.1,5.87-6.07v-4.2c-3.03.04-5.02,1.57-5.87,3.75Z"/>
        <path class="cls-3" d="M102.49,12.67h-4.35v5.02h-2.89v3.34h2.89v10.07c0,3.09,1.19,4.83,4.46,4.83.96,0,2.21-.02,3.13-.34v-3.06c-.41.08-.95.09-1.28.09-1.53,0-1.95-.65-1.95-2.15v-9.43h3.67v-3.34h-3.67v-5.02Z"/>
        <rect class="cls-3" x="110.07" y="17.69" width="4.35" height="17.99"/>
        <rect class="cls-3" x="110.07" y="10.09" width="4.35" height="4.25"/>
        <path class="cls-3" d="M126.56,20.73c2.17,0,3.1,1.21,3.45,2.8h4.26c-.14-2.13-1.86-6.26-7.63-6.26-5.44,0-8.56,4.3-8.56,9.53,0,5.53,2.94,9.29,8.32,9.29,5.1,0,7.2-3.1,7.87-6.13h-4.29c-.54,1.62-1.59,2.69-3.48,2.69-2.5,0-3.99-2.08-3.99-6,0-3.69,1.46-5.93,4.04-5.93Z"/>
        <path class="cls-3" d="M144.65,17.27c-5.61,0-8.87,3.99-8.87,9.47s3.21,9.36,8.64,9.36,8.8-4.09,8.8-9.45c0-5.63-3.37-9.37-8.57-9.37ZM144.54,32.64c-2.69,0-4.34-2.33-4.34-5.95,0-3.91,1.6-5.96,4.27-5.96s4.32,2.12,4.32,5.98c0,3.65-1.52,5.93-4.25,5.93Z"/>
        <path class="cls-3" d="M165.2,17.27c-3.26,0-4.72,1.67-5.37,2.93-.01-.56-.07-2.03-.17-2.51h-4.22c.03,1.35.03,2.99.03,4.53v13.46h4.35v-9.86c0-3.32,1.26-4.97,3.81-4.97,2.38,0,3.19,1.59,3.19,3.84v10.98h4.35v-11.48c0-4.61-2.45-6.92-5.98-6.92Z"/>
        <path class="cls-3" d="M184.24,17.27c-3.26,0-4.72,1.67-5.37,2.93-.01-.56-.07-2.03-.17-2.51h-4.22c.03,1.35.03,2.99.03,4.53v13.46h4.35v-9.86c0-3.32,1.26-4.97,3.81-4.97,2.38,0,3.19,1.59,3.19,3.84v10.98h4.35v-11.48c0-4.61-2.45-6.92-5.98-6.92Z"/>
      </g>
    </g>
  </g>
</svg>