<?xml version="1.0" encoding="UTF-8"?>
<svg id="Layer_2" data-name="Layer 2" xmlns="http://www.w3.org/2000/svg" viewBox="0 0 34.77 34.77">
  <defs>
    <style>
      .cls-1 {
        fill: #6b6b7f;
        stroke-width: 0px;
      }
    </style>
  </defs>
  <g id="Layer_1-2" data-name="Layer 1">
    <g>
      <path class="cls-1" d="M14.85,29.7c-3.8,0-7.61-1.45-10.5-4.34C-1.45,19.56-1.45,10.14,4.34,4.35c5.79-5.8,15.22-5.79,21.01,0h0c5.79,5.79,5.79,15.22,0,21.01-2.9,2.9-6.7,4.34-10.5,4.34ZM14.85,3.92c-2.8,0-5.6,1.07-7.73,3.2-4.26,4.27-4.26,11.2,0,15.47,4.26,4.26,11.2,4.27,15.47,0,4.26-4.26,4.26-11.2,0-15.47h0c-2.13-2.13-4.93-3.2-7.73-3.2Z"/>
      <rect class="cls-1" x="26.72" y="22.02" width="3.92" height="13.32" transform="translate(-11.88 28.68) rotate(-45)"/>
    </g>
  </g>
</svg>