<?xml version="1.0" encoding="UTF-8"?>
<svg id="Layer_2" data-name="Layer 2" xmlns="http://www.w3.org/2000/svg" viewBox="0 0 33.99 33.99">
  <defs>
    <style>
      .cls-1 {
        fill: #cbcbd3;
        stroke-width: 0px;
      }
    </style>
  </defs>
  <g id="Layer_1-2" data-name="Layer 1">
    <g>
      <path class="cls-1" d="M16.99,0C7.62,0,0,7.63,0,17s7.62,16.99,16.99,16.99,17-7.62,17-16.99S26.37,0,16.99,0ZM16.99,30.48c-7.43,0-13.48-6.05-13.48-13.48S9.56,3.52,16.99,3.52s13.48,6.05,13.48,13.48-6.05,13.48-13.48,13.48Z"/>
      <path class="cls-1" d="M23.29,18.46l-5.23-1.82v-7.46c0-.97-.79-1.76-1.76-1.76s-1.76.79-1.76,1.76v8.71c0,.75.47,1.41,1.18,1.66l6.41,2.23c.19.07.38.1.58.1.73,0,1.41-.46,1.66-1.18.32-.92-.16-1.92-1.08-2.24Z"/>
    </g>
  </g>
</svg>