<?xml version="1.0" encoding="UTF-8"?>
<svg id="Layer_2" data-name="Layer 2" xmlns="http://www.w3.org/2000/svg" viewBox="0 0 8.07 36.78">
  <defs>
    <style>
      .cls-1 {
        fill: #6b6b7f;
        stroke-width: 0px;
      }
    </style>
  </defs>
  <g id="Layer_1-2" data-name="Layer 1">
    <g>
      <path class="cls-1" d="M8.07,4.04c0,2.23-1.81,4.04-4.04,4.04S0,6.27,0,4.04,1.82,0,4.03,0s4.04,1.82,4.04,4.04Z"/>
      <path class="cls-1" d="M8.07,18.39c0,2.23-1.81,4.04-4.04,4.04s-4.03-1.81-4.03-4.04,1.82-4.04,4.03-4.04,4.04,1.82,4.04,4.04Z"/>
      <path class="cls-1" d="M8.07,32.74c0,2.23-1.81,4.04-4.04,4.04s-4.03-1.81-4.03-4.04,1.82-4.02,4.03-4.02,4.04,1.81,4.04,4.02Z"/>
    </g>
  </g>
</svg>